HIERARCHY
ROOT Hips
{
    OFFSET 11.691316604614258 80.65158081054688 -16.73150634765625
    CHANNELS 6 Xposition Yposition Zposition Zrotation Xrotation Yrotation
    JOINT RightUpLeg
    {
        OFFSET -11.691316604614258 0.0 0.0
        CHANNELS 3 Zrotation Xrotation Yrotation
        JOINT RightLeg
        {
            OFFSET 0.0 -38.82281494140625 0.0
            CHANNELS 3 Zrotation Xrotation Yrotation
            JOINT RightFoot
            {
                OFFSET 0.0 -41.828765869140625 0.0
                CHANNELS 3 Zrotation Xrotation Yrotation
                End Site RightFoot_End
                {
                    OFFSET 0.0 0.0 16.73150634765625
                }
            }
        }
    }
    JOINT LeftUpLeg
    {
        OFFSET 11.691316604614258 0.0 0.0
        CHANNELS 3 Zrotation Xrotation Yrotation
        JOINT LeftLeg
        {
            OFFSET 0.0 -38.82281494140625 0.0
            CHANNELS 3 Zrotation Xrotation Yrotation
            JOINT LeftFoot
            {
                OFFSET 0.0 -41.828765869140625 0.0
                CHANNELS 3 Zrotation Xrotation Yrotation
                End Site LeftFoot_End
                {
                    OFFSET 0.0 0.0 16.73150634765625
                }
            }
        }
    }
    JOINT Spine
    {
        OFFSET 0.0 23.187904357910156 0.0
        CHANNELS 3 Zrotation Xrotation Yrotation
        JOINT Spine3
        {
            OFFSET 0.0 26.17115020751953 0.0
            CHANNELS 3 Zrotation Xrotation Yrotation
            JOINT Neck
            {
                OFFSET 0.0 14.838532447814941 0.0
                CHANNELS 3 Zrotation Xrotation Yrotation
                End Site Head
                {
                    OFFSET 0.0 5.935413360595703 0.0
                }
            }
            JOINT LeftArm
            {
                OFFSET 14.636032104492188 0.0 0.0
                CHANNELS 3 Zrotation Xrotation Yrotation
                JOINT LeftForeArm
                {
                    OFFSET 26.926502227783203 0.0 0.0
                    CHANNELS 3 Zrotation Xrotation Yrotation
                    JOINT LeftHand
                    {
                        OFFSET 23.650402069091797 0.0 0.0
                        CHANNELS 3 Zrotation Xrotation Yrotation
                        End Site LeftWristEndSite
                        {
                            OFFSET 9.460161209106445 0.0 0.0
                        }
                    }
                }
            }
            JOINT RightArm
            {
                OFFSET -14.636032104492188 0.0 0.0
                CHANNELS 3 Zrotation Xrotation Yrotation
                JOINT RightForeArm
                {
                    OFFSET -26.926502227783203 0.0 0.0
                    CHANNELS 3 Zrotation Xrotation Yrotation
                    JOINT RightHand
                    {
                        OFFSET -23.650402069091797 0.0 0.0
                        CHANNELS 3 Zrotation Xrotation Yrotation
                        End Site RightWristEndSite
                        {
                            OFFSET -9.460161209106445 0.0 0.0
                        }
                    }
                }
            }
        }
    }
}
MOTION
Frames: 4
Frame Time: 0.03333333333333333
-0.0 83.9059829711914 0.0 -2.5947689942583403 -4.751265358063767 -34.51760063327881 -0.13397444706802544 21.605709634935025 -7.410179264557047 -3.63752681649161 11.01033061529842 1.3150815986305775 7.951386703658792e-16 1.9878466759146985e-16 6.7586786981099735e-15 -3.212812114136998 7.8107949705699555 8.965240956031646 2.2090622078505553 21.05219587440101 -0.13171213886924715 0.0 0.0 -2.782985346280577e-15 1.883955814792464 -2.7522123625142654 0.090217182183681 -4.269275644285971e-07 8.703852433493681e-07 16.979448957958017 -2.909491124207993 -12.48927299977198 -6.248424100372961 -12.52020762863182 -43.58824196686837 75.16182702573396 -89.99999931493454 -2.0488274630857925e-06 2.235824164932543e-06 0.0 0.0 0.0 -11.742520985485845 -44.867320639238564 -94.34057068752033 89.99999557029332 2.701731222396216e-06 6.061945030039477e-07 3.1805546814635168e-15 1.7655625192200634e-31 6.3611093629270335e-15
-0.0 83.9059829711914 0.0 -3.2126851421251437 -5.397992239832906 -38.139443196440716 -1.8147196578332927 22.204803661260165 -5.911534495628134 -3.8419097871109247 11.084133912237524 1.618397249125316 -7.951386703658792e-16 4.138037154422024e-33 -5.963540027744094e-16 -3.120132165424781 6.524965155658944 8.081102118563324 0.24051206591595942 23.611989633393623 0.88129795152272 -7.951386703658791e-16 -5.103579157120495e-32 7.35503270088438e-15 1.9727876730865883 -2.1190822425148417 0.06550859254598139 -4.349487761737166e-07 6.891777619159694e-07 19.202927968900287 -1.643728764306947 -13.100345519231315 -5.168289858765558 -15.138510780698429 -47.11917488991804 74.42131383953715 -89.99999984748662 -8.903644040510628e-07 3.6708043583822588e-06 -1.7655625192200634e-31 -3.1805546814635168e-15 -6.3611093629270335e-15 -10.85320813120948 -44.107868259540076 -93.73672745263418 90.00000442788514 -2.8544507041995748e-06 -4.415991979808475e-06 0.0 1.5902773407317584e-15 0.0
-0.0 83.9059829711914 0.0 -2.924845314325699 -4.751347528608749 -31.25742064506646 1.1751410623325114 21.117151332342356 -8.397094360717452 -3.412511354398798 10.725335537248128 1.022149285621958 3.793200724886855e-33 -1.9878466759146977e-16 2.1866313435061676e-15 -2.176403682577733 9.572405973401505 9.289139299688532 2.359401825257136 20.775283339615868 -0.667637590357745 -5.517382872562698e-33 3.1805546814635176e-15 1.9878466759146985e-16 1.7272939708794308 -2.5494097509326696 0.07818874728342771 5.779077158881404e-07 1.3385636254282445e-07 13.268506485147586 -0.8716166086744985 -12.197741852451347 -6.291426252273223 -17.20636570853642 -47.45467886502096 71.59042708514227 -90.00000171767594 1.510136340047838e-06 1.5471425531711096e-06 3.1805546814635168e-15 0.0 0.0 -11.83417129833654 -44.50766651468555 -95.14886237438643 89.99999416405869 1.1525861664266602e-06 1.678457434903693e-06 2.648343778830095e-31 -4.7708320221952736e-15 6.361109362927032e-15
-0.0 83.9059829711914 0.0 -2.7536314574792766 -4.698776785718247 -26.68132083071018 2.805111488135407 20.939487685297895 -9.734728460930274 -3.8502956541113815 10.991076032834899 0.8469616326467444 -7.951386703658791e-16 1.2414111463266072e-32 -1.789062008323228e-15 -2.3752995028836734 11.452212849863693 9.813643604095693 3.990577549457997 18.7862545031129 -1.3229630191473996 1.5902773407317584e-15 3.1805546814635168e-15 -1.7890620083232284e-15 1.597141817179295 -2.4656516213960558 0.08302529310086748 8.028398647114833e-08 1.4305099023596443e-06 9.344618405817307 0.4304695836262203 -12.40798248570697 -6.725390956472593 -18.147218918770687 -47.376181483359964 69.99165220702872 -89.99999463299285 1.922169367478364e-06 1.1262967333349624e-07 -3.180554681463516e-15 1.590277340731758e-15 4.4139062980501586e-32 -12.44070383448022 -43.558883627205525 -95.28895065970353 89.99999843338259 -1.4378096522312e-06 3.719422882311772e-06 1.5902773407317584e-15 1.5902773407317584e-15 -6.3611093629270335e-15
